<svg width="59" height="53" viewBox="0 0 59 53" fill="none" xmlns="http://www.w3.org/2000/svg">
<path d="M28.8147 31.5689C28.8147 30.1307 28.8104 28.692 28.8194 27.2537C28.8208 27.0388 28.7529 26.9519 28.5444 26.904C27.2004 26.596 25.8821 26.2079 24.6478 25.5763C23.9454 25.2171 23.2995 24.7805 22.7743 24.1841C22.137 23.4609 21.7955 22.6092 21.6692 21.6601C21.5124 20.48 21.6397 19.3417 22.1692 18.2659C22.8265 16.9316 23.8832 16.0158 25.2258 15.4127C26.2853 14.9368 27.4075 14.7213 28.5596 14.6516C28.7525 14.6397 28.8204 14.5814 28.818 14.3868C28.8094 13.6912 28.8213 12.9955 28.8104 12.3004C28.8071 12.0797 28.8702 11.9862 29.1039 11.9929C29.5702 12.0062 30.0371 12.0033 30.5039 11.9938C30.7081 11.9896 30.7832 12.0622 30.7803 12.2695C30.7708 12.949 30.7765 13.629 30.7765 14.3085C30.7765 14.6933 30.777 14.6914 31.1583 14.7365C32.0583 14.8433 32.9355 15.0464 33.7689 15.4056C35.8942 16.3223 37.2372 17.8859 37.6831 20.1801C37.6936 20.2342 37.6969 20.2902 37.7112 20.3434C37.7653 20.5469 37.6803 20.6044 37.4818 20.6015C36.8331 20.5925 36.1843 20.5968 35.5361 20.5996C35.3998 20.6001 35.2972 20.5873 35.2535 20.4217C34.732 18.4453 33.3586 17.3938 31.4409 16.9501C30.6454 16.766 30.7808 16.7613 30.7794 17.4635C30.7737 19.8428 30.7808 22.2215 30.7722 24.6007C30.7713 24.8422 30.8378 24.9424 31.0809 24.9974C32.3803 25.2906 33.6474 25.6869 34.8313 26.3104C35.9559 26.9026 36.9276 27.6661 37.5587 28.8011C37.95 29.5048 38.149 30.2669 38.2122 31.0612C38.3095 32.285 38.1737 33.4741 37.6105 34.5906C36.9157 35.9667 35.8058 36.8887 34.4234 37.5098C33.3448 37.9943 32.206 38.2477 31.0292 38.3303C30.8321 38.344 30.7741 38.4256 30.7751 38.6117C30.7808 39.4966 30.7779 40.3821 30.7775 41.2675C30.7775 41.5883 30.7708 41.5944 30.4412 41.5954C29.9981 41.5963 29.5551 41.5869 29.1124 41.5992C28.8878 41.6054 28.8075 41.5299 28.8104 41.2998C28.8213 40.4305 28.8151 39.5612 28.8147 38.6914C28.8147 38.3606 28.8018 38.3616 28.4694 38.3298C26.3128 38.1243 24.3614 37.4353 22.817 35.8486C21.7219 34.723 21.0945 33.3479 20.7702 31.8242C20.7341 31.6543 20.7835 31.5865 20.9525 31.587C21.6487 31.5884 22.345 31.5898 23.0407 31.586C23.1993 31.5851 23.2568 31.6672 23.2957 31.8071C23.5294 32.6475 23.9065 33.4153 24.4716 34.0853C25.3811 35.1634 26.5631 35.7717 27.9185 36.0787C28.1265 36.1257 28.3421 36.1404 28.5478 36.1945C28.7767 36.2543 28.8185 36.1589 28.818 35.9558C28.8128 34.4938 28.8151 33.0314 28.8151 31.5694L28.8147 31.5689ZM30.777 31.8479C30.777 33.2302 30.7798 34.6125 30.7737 35.9942C30.7727 36.1807 30.8022 36.2595 31.0211 36.2362C31.6285 36.1717 32.2259 36.0645 32.8034 35.8666C33.5533 35.6094 34.2381 35.2402 34.7753 34.6424C35.5095 33.8248 35.7389 32.8511 35.7104 31.772C35.6719 30.3138 34.9913 29.2751 33.7566 28.5543C32.9093 28.0599 31.9913 27.7477 31.0529 27.4862C30.7813 27.4108 30.777 27.4127 30.777 27.7016C30.7765 29.0839 30.777 30.4662 30.777 31.8479ZM28.8147 20.6314C28.8147 19.4385 28.8147 18.2451 28.8147 17.0521C28.8147 16.7485 28.8066 16.7375 28.5121 16.7499C27.9812 16.7727 27.4574 16.8543 26.9478 17.0023C25.3716 17.4607 24.2935 18.3851 24.1154 20.1104C23.9749 21.4703 24.4298 22.5622 25.6275 23.2953C26.5147 23.8386 27.4954 24.1418 28.4903 24.4076C28.8047 24.4916 28.8147 24.4825 28.8147 24.1632C28.8156 22.9859 28.8147 21.8087 28.8147 20.6314Z" fill="white"/>
<path d="M54.5494 20.1175C54.8538 19.4152 55.1302 18.7784 55.4061 18.1412C55.6759 17.5172 55.9475 16.8946 56.213 16.2687C56.4851 15.6272 57.1077 15.3368 57.6923 15.5859C58.2846 15.8383 58.5068 16.469 58.2252 17.1214C57.5522 18.6816 56.8745 20.2395 56.1997 21.7992C55.8701 22.5608 55.541 23.3224 55.2143 24.0849C54.8595 24.9129 54.1481 25.0928 53.4376 24.5428C51.4625 23.013 49.4849 21.4855 47.5036 19.9633C47.1522 19.6933 46.9 19.3844 46.9276 18.9141C46.9532 18.4776 47.1788 18.1682 47.5625 17.9841C47.9652 17.791 48.3532 17.865 48.6994 18.1307C49.7718 18.954 50.8394 19.7834 51.9094 20.6101C52.1207 20.7733 52.3335 20.9346 52.5866 21.1282C52.3933 20.3097 52.1625 19.5571 51.8956 18.8154C50.9785 16.2626 49.6668 13.9308 47.9534 11.8273C45.9777 9.40157 43.6189 7.43329 40.8729 5.92861C38.5273 4.64363 36.0336 3.78666 33.3974 3.34678C31.3752 3.0094 29.3416 2.94677 27.299 3.12898C24.252 3.40088 21.3707 4.24409 18.6514 5.63678C16.0698 6.95925 13.8045 8.69882 11.8573 10.8493C9.21207 13.7718 7.39982 17.1409 6.41865 20.9579C6.3061 21.3968 6.0297 21.6953 5.57046 21.7897C5.13734 21.8789 4.79588 21.7157 4.52471 21.384C4.28868 21.0955 4.26778 20.7633 4.35374 20.4183C4.70565 19.0119 5.17961 17.6472 5.7666 16.3223C7.12817 13.2503 9.01356 10.539 11.429 8.20343C14.1155 5.60594 17.2176 3.66708 20.7405 2.4044C22.6478 1.72063 24.6082 1.26794 26.6199 1.04634C28.6948 0.817626 30.7687 0.845623 32.8412 1.11325C35.9581 1.51611 38.9011 2.4566 41.6741 3.92854C43.6397 4.97199 45.4387 6.2527 47.0724 7.76545C49.5571 10.0654 51.5233 12.7436 52.9656 15.8051C53.5768 17.102 54.0702 18.4429 54.4577 19.8228C54.4786 19.8978 54.5028 19.9714 54.547 20.117L54.5494 20.1175Z" fill="white"/>
<path d="M4.42132 33.4778C4.04376 34.3471 3.69423 35.1505 3.34612 35.9548C3.14808 36.4117 2.951 36.8687 2.75676 37.3271C2.48463 37.9677 1.85538 38.2562 1.27504 38.0037C0.691372 37.7494 0.465314 37.1249 0.739813 36.4872C1.46168 34.8107 2.19019 33.1366 2.91538 31.4611C3.19795 30.8082 3.47957 30.1553 3.75977 29.5019C4.11405 28.6758 4.82594 28.4997 5.53831 29.0516C7.51346 30.5814 9.49099 32.1089 11.4723 33.6311C11.8247 33.9016 12.0769 34.2109 12.0436 34.6817C12.0132 35.1149 11.7915 35.4285 11.4049 35.6098C10.9912 35.8044 10.6023 35.7166 10.2489 35.4437C9.12198 34.5744 7.99597 33.7042 6.86948 32.8344C6.72606 32.7233 6.58074 32.6142 6.38792 32.4676C6.41547 32.5891 6.43066 32.6659 6.45061 32.7419C7.37479 36.2803 9.02557 39.4415 11.4011 42.2222C13.5619 44.7513 16.1416 46.7438 19.1345 48.1991C21.3053 49.2544 23.5897 49.9468 25.9761 50.3088C27.5461 50.547 29.1257 50.6163 30.7071 50.5361C33.7489 50.3819 36.6578 49.6663 39.427 48.388C42.3158 47.0546 44.8405 45.2187 46.9904 42.8808C49.6907 39.945 51.5448 36.5413 52.5397 32.6749C52.7221 31.9665 53.3456 31.6139 53.9844 31.8555C54.5006 32.051 54.7637 32.5701 54.6198 33.1547C54.3092 34.4155 53.8932 35.6421 53.3889 36.8383C52.0164 40.0935 50.0612 42.9543 47.5199 45.4076C44.8609 47.9742 41.793 49.895 38.3133 51.1563C36.3785 51.8576 34.3882 52.3203 32.3446 52.5452C30.2693 52.7734 28.1958 52.745 26.1233 52.4773C22.9818 52.0716 20.0174 51.1188 17.2282 49.626C14.7611 48.3059 12.5694 46.6233 10.6469 44.5871C8.7411 42.5695 7.19479 40.3108 6.01227 37.8021C5.39773 36.4981 4.89908 35.1505 4.5106 33.7625C4.4897 33.6885 4.46501 33.6154 4.42132 33.4773V33.4778Z" fill="white"/>
</svg>
