<svg width="58" height="72" viewBox="0 0 58 72" fill="none" xmlns="http://www.w3.org/2000/svg">
<path d="M28.3687 71.1005C27.5232 70.9046 26.9702 70.2279 26.3536 69.672C24.0545 67.5941 21.8995 65.359 19.8589 62.9894C18.6681 61.6042 17.509 60.1916 16.3965 58.7334C15.1824 57.1408 14.0297 55.4981 12.9214 53.8189C11.5378 51.7227 10.2473 49.5628 9.05857 47.3345C7.39095 44.2109 5.92251 40.9801 4.68079 37.6331C3.03012 33.1857 1.80112 28.6084 1.04042 23.8898C0.726808 21.9441 0.483128 19.9869 0.347514 18.0138C0.286064 17.1412 0.222495 16.2708 0.199187 15.3982C0.199187 15.3276 0.175878 15.2547 0.165283 15.184C0.165283 14.2544 0.165283 13.3249 0.165283 12.3953C0.510674 11.4315 1.20781 10.9827 2.11897 10.8369C2.41138 10.789 2.7038 10.7298 2.9941 10.6682C6.79764 9.86625 10.5376 8.8068 14.214 7.48988C16.9242 6.51928 19.5856 5.41426 22.1538 4.06317C23.8617 3.16548 25.5144 2.16981 27.0761 1.00099C27.5465 0.650121 27.9788 0.226339 28.5424 0.0372314H29.4578C29.8435 0.142038 30.1677 0.369878 30.4813 0.625059C30.6508 0.761763 30.8225 0.89391 30.9983 1.02378C32.8016 2.36348 34.7192 3.48445 36.7047 4.47783C39.0016 5.62843 41.3622 6.61042 43.763 7.47849C45.1339 7.97518 46.5219 8.41719 47.9182 8.83414C50.5627 9.62474 53.2284 10.3265 55.9322 10.8346C56.8391 11.0055 57.5383 11.4361 57.888 12.3976V15.0223C57.8053 15.462 57.8329 15.9108 57.8096 16.3551C57.5828 20.8185 56.9217 25.2067 55.8644 29.5243C54.9002 33.4636 53.6119 37.2777 52.0312 40.9801C50.9039 43.6253 49.6388 46.1908 48.2488 48.6856C46.3841 52.0258 44.2991 55.2041 42.0254 58.2344C39.9976 60.9389 37.8341 63.5135 35.5244 65.9422C34.5794 66.9356 33.6089 67.8994 32.613 68.8358C32.0133 69.3986 31.4009 69.9454 30.7885 70.4922C30.4643 70.7838 30.0935 70.973 29.6867 71.1074M56.8115 13.9013C56.8115 13.4844 56.8094 13.1927 56.8115 12.9011C56.8158 12.6413 56.7098 12.4454 56.5212 12.2973C56.3326 12.1492 56.125 12.0604 55.894 12.0171C52.4867 11.37 49.1324 10.4746 45.8226 9.3969C44.3393 8.91388 42.873 8.3739 41.413 7.81341C39.1267 6.93623 36.8954 5.92462 34.7319 4.75124C32.952 3.7852 31.2399 2.69157 29.6358 1.41566C29.2205 1.0853 28.8094 1.11264 28.3941 1.42933C27.822 1.86679 27.2499 2.31108 26.6566 2.71435C24.3215 4.30012 21.8486 5.59881 19.2953 6.71978C15.9728 8.18023 12.5655 9.365 9.09671 10.3516C7.2956 10.8642 5.486 11.3449 3.6531 11.714C3.13607 11.8188 2.61692 11.9054 2.10625 12.0307C1.61254 12.1515 1.19298 12.3748 1.22688 13.1722C1.27138 14.218 1.28621 15.2661 1.33495 16.3118C1.41123 17.9682 1.5638 19.6155 1.76722 21.2583C2.12956 24.1792 2.68897 27.0545 3.41154 29.898C4.2231 33.0854 5.24868 36.1886 6.47556 39.2166C7.88255 42.6889 9.52898 46.0267 11.3958 49.2393C12.8918 51.8139 14.5234 54.2882 16.2673 56.6783C17.8989 58.9179 19.6343 61.0596 21.4609 63.117C23.5035 65.4182 25.6649 67.5895 27.9661 69.5922C28.5763 70.1231 29.5023 70.114 30.1041 69.5786C30.8415 68.9247 31.5726 68.2617 32.2888 67.5781C34.5624 65.4114 36.6856 63.0851 38.7008 60.645C40.1459 58.8929 41.5232 57.0815 42.8306 55.2064C44.3881 52.9736 45.8544 50.6792 47.1957 48.2892C48.5391 45.8923 49.7702 43.4317 50.87 40.8912C52.1752 37.8701 53.2983 34.7737 54.1904 31.5862C55.2901 27.6606 56.0678 23.6642 56.4704 19.5859C56.6611 17.6561 56.7649 15.7217 56.8158 13.9059L56.8115 13.9013Z" fill="white"/>
<path d="M4.01562 15.4802C4.01562 15.3868 4.01562 15.3139 4.01562 15.241C4.01562 14.7944 4.15124 14.6031 4.55596 14.5233C5.66418 14.3069 6.75968 14.0198 7.85307 13.7304C10.7666 12.9603 13.6463 12.0649 16.4815 11.0032C19.3993 9.91184 22.2472 8.6496 24.9934 7.12763C26.2436 6.43272 27.4598 5.67173 28.6337 4.83784C28.9029 4.64645 29.1444 4.6419 29.4093 4.82873C32.8356 7.26889 36.5629 9.04604 40.4088 10.5612C44.0005 11.9761 47.6726 13.1084 51.3978 14.0403C52.0737 14.2089 52.756 14.3524 53.4341 14.5119C53.9215 14.6281 54.0486 14.7831 54.0274 15.323C53.9681 16.8154 53.8473 18.3009 53.6905 19.7864C53.4489 22.0512 53.0887 24.2931 52.6098 26.5123C51.633 31.0349 50.226 35.4003 48.4016 39.6085C47.0602 42.7026 45.5304 45.6827 43.8098 48.5489C42.4727 50.7772 41.036 52.928 39.5083 55.0128C37.919 57.1841 36.2239 59.2551 34.4503 61.2487C32.8738 63.0213 31.2168 64.7028 29.4856 66.2977C29.1423 66.6144 28.905 66.6167 28.5617 66.2977C27.1102 64.9534 25.7138 63.5476 24.364 62.0849C23.1689 60.7908 22.0226 59.4511 20.908 58.0795C19.2383 56.0289 17.6808 53.8827 16.2039 51.6681C14.5384 49.1687 13.0212 46.569 11.6481 43.8759C10.1755 40.9892 8.89136 38.0045 7.81069 34.9218C7.17924 33.1219 6.61559 31.2992 6.13671 29.4446C5.43321 26.7128 4.87381 23.9491 4.5157 21.1375C4.27626 19.251 4.11734 17.3576 4.01774 15.478L4.01562 15.4802ZM5.15775 16.4007C5.21284 17.5103 5.32726 18.7976 5.47559 20.0803C5.81886 23.0491 6.3592 25.9791 7.10084 28.8613C7.745 31.3653 8.52902 33.8214 9.45077 36.2228C10.8535 39.8774 12.5296 43.3793 14.4642 46.7422C15.9115 49.2552 17.4838 51.6704 19.1747 53.9989C20.7025 56.1041 22.3235 58.1251 24.0398 60.0526C25.574 61.7773 27.1632 63.4451 28.8393 65.0127C28.9791 65.1425 29.0681 65.1357 29.2059 65.0104C29.9433 64.3269 30.6616 63.616 31.3651 62.8915C33.662 60.5265 35.8361 58.0362 37.8385 55.3796C39.6206 53.0146 41.3051 50.5722 42.8372 48.009C45.2549 43.9648 47.3166 39.727 48.9504 35.2499C49.8742 32.7186 50.6604 30.1418 51.2727 27.5034C51.7304 25.5325 52.1097 23.5435 52.3788 21.5294C52.6268 19.6816 52.8132 17.827 52.9022 15.961C52.9149 15.6807 52.8387 15.5668 52.5717 15.5076C49.7852 14.8787 47.0306 14.1018 44.3098 13.2018C41.8794 12.3998 39.4828 11.4908 37.1308 10.445C34.4079 9.23515 31.7719 7.84533 29.2864 6.13881C29.0808 5.99755 28.941 6.0021 28.746 6.13881C26.9089 7.42382 24.9658 8.50151 22.9782 9.48122C20.8508 10.5316 18.6704 11.4361 16.4539 12.2472C12.9301 13.5368 9.34694 14.6031 5.70868 15.4575C5.13444 15.5919 5.13444 15.5987 5.15563 16.3962L5.15775 16.4007Z" fill="white"/>
<path d="M42.2799 32.3791C42.2926 34.0492 42.2799 35.635 42.1231 37.2116C41.8455 40.014 41.1802 42.6912 39.7351 45.0858C38.6777 46.8378 37.2453 48.173 35.6158 49.2803C33.7278 50.563 31.7021 51.5633 29.6912 52.5954C29.4051 52.7412 29.1063 52.7389 28.8288 52.5954C26.7437 51.52 24.6523 50.4537 22.7155 49.0821C21.2323 48.0317 19.9143 46.7877 18.8823 45.2179C18.1428 44.0924 17.5961 42.8643 17.1935 41.5611C16.6765 39.8956 16.382 38.1799 16.2188 36.4347C16.0578 34.7145 15.9772 32.9875 15.9137 31.2604C15.8649 29.9321 15.812 28.6038 15.7717 27.2755C15.7547 26.7332 15.9645 26.5054 16.4667 26.4986C17.0516 26.4917 17.6364 26.4895 18.2212 26.5031C18.4564 26.5077 18.5306 26.4165 18.5285 26.1682C18.5179 24.9834 18.5136 23.8009 18.6641 22.623C18.9438 20.4471 19.6176 18.4262 20.8381 16.6559C22.6287 14.0631 25.0337 12.5753 28.0214 12.213C30.2548 11.9419 32.378 12.3543 34.3571 13.5117C35.5628 14.2157 36.582 15.1658 37.4296 16.3278C38.8387 18.2599 39.5952 20.4722 39.8728 22.8896C39.9957 23.9673 39.9872 25.0518 39.9809 26.1363C39.9787 26.5327 39.9809 26.535 40.3411 26.535C40.7479 26.535 41.1548 26.535 41.5616 26.5373C41.9748 26.5419 42.1697 26.7424 42.1761 27.1889C42.2058 28.9456 42.299 30.7022 42.2778 32.3768L42.2799 32.3791ZM37.1309 46.5941C37.1181 46.5736 37.1075 46.5508 37.0948 46.5303C37.027 46.528 36.9613 46.5211 36.8935 46.5211C35.69 46.5211 34.4864 46.5257 33.2828 46.5166C33.0667 46.5166 32.9523 46.5918 32.8569 46.806C32.5073 47.592 31.6872 47.9953 30.899 47.7971C30.1086 47.5988 29.5556 46.8697 29.5428 46.0108C29.5301 45.1268 30.0662 44.3544 30.8375 44.1425C31.647 43.9215 32.467 44.2974 32.8357 45.0858C32.9374 45.3022 33.0582 45.3614 33.2701 45.3592C34.8042 45.3501 36.3384 45.3501 37.8725 45.3592C38.1204 45.3592 38.2793 45.2703 38.4234 45.0607C39.3388 43.7347 39.9618 42.2583 40.3877 40.6771C40.4449 40.4606 40.3877 40.3991 40.1928 40.3991C38.4467 40.4036 36.7007 40.4036 34.9547 40.3991C34.7513 40.3991 34.6877 40.4834 34.6919 40.6907C34.7004 41.0462 34.7025 41.4016 34.6898 41.757C34.675 42.174 34.4398 42.3995 34.0774 42.3972C32.1449 42.3881 30.2124 42.3881 28.2821 42.379C28.0786 42.379 27.9685 42.4588 27.8752 42.6638C27.5277 43.4316 26.9323 43.8304 26.1461 43.8304C25.2286 43.8304 24.4383 43.0466 24.3175 42.0714C24.1946 41.0826 24.7582 40.1667 25.6673 39.8751C26.536 39.5948 27.4853 40.0459 27.8752 40.9527C27.9685 41.1669 28.0871 41.2193 28.2863 41.2193C29.9476 41.2148 31.6088 41.217 33.2701 41.217C33.2871 41.217 33.304 41.217 33.321 41.217C33.5413 41.2467 33.6261 41.1487 33.6134 40.9072C33.5985 40.6155 33.6091 40.3239 33.6091 40.0323C33.6091 39.408 33.7681 39.2371 34.3508 39.2371C36.385 39.2371 38.4192 39.2348 40.4534 39.2417C40.6653 39.2417 40.7479 39.1665 40.7903 38.9455C41.123 37.2503 41.1505 35.5279 41.1844 33.8077C41.2204 31.9417 41.176 30.0734 41.1018 28.2074C41.0806 27.6811 41.1357 27.7107 40.6208 27.7107C34.4673 27.7084 28.316 27.7107 22.1625 27.6947C21.5014 27.6947 20.8424 27.7198 20.1813 27.6947C19.1387 27.6514 18.0962 27.6856 17.0558 27.6719C16.9159 27.6719 16.863 27.7221 16.8714 27.8838C16.9053 28.7474 16.9308 29.6131 16.9562 30.4767C16.9668 30.8503 16.9731 30.8594 17.3164 30.8594C18.7827 30.8594 20.2491 30.8435 21.7154 30.8685C22.1455 30.8754 22.4189 30.7888 22.6647 30.3468C23.1563 29.4673 24.2963 29.2896 25.0824 29.8866C25.8749 30.4903 26.072 31.6569 25.5232 32.5022C24.7625 33.6733 23.1754 33.5571 22.51 32.2789C22.4295 32.1239 22.3574 32.0237 22.1688 32.0237C20.533 32.0305 18.8972 32.0282 17.2613 32.0237C17.1045 32.0237 17.0304 32.0647 17.041 32.2561C17.0749 32.8097 17.0855 33.3657 17.1172 33.9193C17.1405 34.3158 17.1554 34.3226 17.5304 34.3226C19.0561 34.3226 20.5817 34.3226 22.1074 34.3226C22.7113 34.3226 22.8914 34.5185 22.8935 35.1747C22.8935 35.4664 22.8935 35.758 22.8935 36.0496C22.8935 36.3891 22.9062 36.4028 23.2241 36.4028C24.7667 36.4028 26.3093 36.3982 27.8519 36.4096C28.1019 36.4096 28.2291 36.3208 28.3266 36.0724C28.655 35.234 29.5556 34.7464 30.3735 34.94C31.2804 35.1565 31.9267 36.0132 31.8949 36.9587C31.8652 37.8723 31.2634 38.6675 30.4455 38.8748C29.6107 39.0867 28.7652 38.6857 28.3647 37.8587C28.2651 37.6536 28.1464 37.5967 27.9494 37.5967C26.2288 37.6035 24.5082 37.6012 22.7876 37.6012C22.6689 37.6012 22.5503 37.6012 22.4316 37.6012C22.0078 37.5853 21.8129 37.3734 21.8086 36.9222C21.8065 36.5577 21.7938 36.1932 21.8107 35.8286C21.8235 35.562 21.7323 35.4846 21.4908 35.4869C20.2109 35.4983 18.9311 35.4914 17.6512 35.4914C17.3729 35.4914 17.2423 35.6448 17.2592 35.9517C17.2592 35.979 17.2613 36.0063 17.2634 36.0337C17.3927 37.4873 17.6046 38.9227 17.9712 40.3307C18.3335 41.716 18.8421 43.0306 19.5752 44.2405C20.5606 45.8673 21.8913 47.1044 23.3851 48.1593C25.182 49.4284 27.123 50.4104 29.0512 51.4197C29.2292 51.5131 29.3754 51.4653 29.5322 51.3833C30.5599 50.8433 31.5919 50.3124 32.6132 49.761C33.8804 49.0775 35.1051 48.3188 36.2324 47.3892C36.5375 47.1363 36.83 46.8629 37.1266 46.5986L37.1309 46.5941ZM33.7447 26.535C34.4652 26.535 35.1856 26.5305 35.9061 26.5373C36.1222 26.5396 36.2112 26.4667 36.207 26.2229C36.1964 25.7216 36.2133 25.2204 36.2027 24.7191C36.1773 23.3043 35.9845 21.9258 35.4526 20.618C34.7089 18.793 33.5244 17.4419 31.7868 16.6946C30.7104 16.2321 29.5873 16.1113 28.441 16.2435C27.3879 16.3642 26.4068 16.7197 25.5253 17.3576C24.0187 18.449 23.1287 19.9983 22.6477 21.8484C22.2854 23.245 22.2854 24.6758 22.3002 26.1067C22.3045 26.4735 22.3235 26.4986 22.6583 26.4986C26.3538 26.5031 30.0493 26.4803 33.7426 26.5327L33.7447 26.535ZM38.8684 25.086C38.9108 22.2607 38.3429 19.7613 36.902 17.5331C36.1116 16.3096 35.1157 15.3207 33.9079 14.5894C32.0623 13.473 30.0768 13.1358 27.9918 13.3955C26.6081 13.5686 25.3176 14.0562 24.1501 14.8787C22.2409 16.2207 20.9886 18.1072 20.2533 20.413C19.6473 22.3063 19.5837 24.268 19.6091 26.2411C19.6113 26.4257 19.6918 26.5008 19.8613 26.4986C20.2342 26.494 20.6072 26.494 20.9801 26.4986C21.156 26.5008 21.2196 26.4188 21.2174 26.2343C21.2111 25.7148 21.2068 25.1953 21.2153 24.6758C21.2344 23.302 21.4103 21.9532 21.8637 20.659C22.5291 18.7588 23.6013 17.205 25.2498 16.166C26.8263 15.1726 28.5363 14.8377 30.3396 15.1066C33.2044 15.5326 35.192 17.2346 36.3998 20.0234C37.0207 21.4587 37.258 22.9898 37.2898 24.5619C37.3025 25.1361 37.2961 25.7102 37.2877 26.2844C37.2855 26.4598 37.3449 26.5305 37.508 26.5282C37.881 26.5236 38.2539 26.5236 38.6268 26.535C38.8239 26.5419 38.8748 26.4416 38.8705 26.2525C38.8642 25.815 38.8705 25.3776 38.8705 25.0814L38.8684 25.086ZM30.0069 36.0701C29.5873 36.0633 29.2314 36.4347 29.2186 36.8926C29.2059 37.3232 29.5831 37.7448 29.9836 37.7516C30.4413 37.7584 30.8121 37.3688 30.8121 36.8744C30.8121 36.4552 30.4328 36.077 30.0048 36.0701H30.0069ZM25.3981 41.8094C25.3981 42.2583 25.7711 42.6615 26.1906 42.6638C26.5975 42.6638 26.9577 42.2719 26.9598 41.8208C26.9641 41.3515 26.606 40.9505 26.1885 40.955C25.7626 40.9596 25.3981 41.3537 25.396 41.8094H25.3981ZM24.0865 32.1308C24.451 32.1308 24.7497 31.8095 24.7476 31.4199C24.7455 31.0394 24.4361 30.7204 24.0717 30.7204C23.703 30.7204 23.4127 31.0349 23.4169 31.4336C23.4212 31.83 23.7093 32.1308 24.0865 32.1308ZM31.9479 45.9652C31.9479 45.5574 31.6788 45.2612 31.2973 45.2589C30.9308 45.2544 30.6362 45.5665 30.6362 45.9629C30.6362 46.3617 30.9223 46.6715 31.291 46.6715C31.6597 46.6715 31.9457 46.3639 31.9479 45.9652Z" fill="white"/>
</svg>
