<svg width="31" height="33" viewBox="0 0 31 33" fill="none" xmlns="http://www.w3.org/2000/svg">
<path d="M23.0516 10.8978L17.9626 15.7791L3.0249 1.09641C3.7749 0.661967 4.75172 0.591326 5.61513 1.07875L23.0516 10.9013V10.8978Z" fill="white"/>
<path d="M23.1792 22.4936L5.61835 32.3869C4.56836 32.9802 3.35007 32.7507 2.57812 32.0372L17.9658 17.3545L23.1792 22.4971V22.4936Z" fill="white"/>
<path d="M29.0658 18.8494L24.0317 21.6856L23.9915 21.7068L18.7781 16.5642L23.8671 11.6829L23.9073 11.7041L29.0658 14.611C30.7451 15.5575 30.7451 17.8993 29.0658 18.8459V18.8494Z" fill="white"/>
<path d="M1.76217 31.2494C1.76217 31.2494 1.74022 31.2282 1.72925 31.2212C1.27559 30.7867 0.98291 30.1863 0.98291 29.4834V3.97855C0.98291 3.07082 1.47315 2.32556 2.17193 1.90172C2.18656 1.89465 2.19754 1.88759 2.21217 1.88052L17.1499 16.5632L1.76217 31.2459V31.2494Z" fill="white"/>
</svg>
