<svg xmlns="http://www.w3.org/2000/svg" width="59" height="54" viewBox="0 0 59 54" fill="none">
<path d="M29.5565 42.5119C26.2547 42.5119 22.9529 42.5119 19.6512 42.5119C19.1295 42.5119 19.1262 42.5119 19.1262 43.0402C19.1262 45.7608 19.1262 48.4815 19.1262 51.2022C19.1262 52.6054 18.3734 53.411 16.9833 53.454C13.1037 53.5728 9.22087 53.4804 5.33798 53.5002C4.41349 53.5035 3.49229 53.5497 2.5678 53.454C1.40888 53.3351 0.755127 52.4436 0.722109 51.397C0.702298 50.7894 0.715505 50.1819 0.715505 49.5744C0.715505 44.2651 0.735316 38.9559 0.7056 33.6466C0.698997 32.2566 1.66311 31.2694 3.06967 31.2826C7.66573 31.3255 12.2618 31.2958 16.8579 31.3057C17.2211 31.3057 17.4291 31.1967 17.6074 30.8764C18.4097 29.4072 19.2616 27.961 20.0936 26.5082C20.6615 25.5144 21.2327 24.5139 21.8336 23.5399C22.0912 23.1239 22.0813 23.1272 21.652 22.9258C20.8365 22.5461 20.3742 21.9121 20.3709 21.0009C20.3643 15.0048 20.3643 9.00882 20.3709 3.01611C20.3709 1.77464 21.2954 0.902974 22.6029 0.89637C24.518 0.886465 26.433 0.89637 28.348 0.89637C31.0159 0.89637 33.6837 0.89637 36.3515 0.89637C37.9265 0.89637 38.7783 1.74493 38.7783 3.31327C38.7783 9.09797 38.7717 14.8827 38.7816 20.6641C38.7816 21.7834 38.3887 22.6187 37.276 22.9951C36.9689 23.0975 37.1505 23.2626 37.2199 23.388C37.7284 24.2828 38.25 25.171 38.7618 26.0625C39.5806 27.4789 40.3962 28.8987 41.215 30.3151C41.3735 30.5892 41.5584 30.8467 41.7103 31.1241C41.8292 31.342 42.0207 31.2925 42.1956 31.2925C44.9955 31.2925 47.7955 31.2925 50.5954 31.2925C52.4708 31.2925 54.3462 31.2892 56.2216 31.2793C57.5159 31.2727 58.4172 32.1707 58.4239 33.5113C58.4338 35.4659 58.4239 37.4206 58.4239 39.3752C58.4239 43.2977 58.4239 47.2202 58.4239 51.1427C58.4239 52.6087 57.5819 53.4507 56.1159 53.4507C51.5066 53.4507 46.8974 53.4507 42.2881 53.4507C40.8155 53.4507 40.0132 52.6516 40.0132 51.1757C40.0099 48.4683 40.0132 45.7608 40.0132 43.0534C40.0132 42.6946 39.8294 42.5141 39.4618 42.5119C36.16 42.5119 32.8582 42.5119 29.5565 42.5119ZM29.5565 40.6497C32.8714 40.6497 36.1831 40.6431 39.4981 40.6563C39.8943 40.6563 40.0231 40.5407 40.0198 40.1379C40.0033 37.9323 40.0132 35.73 40.0132 33.5245C40.0132 33.2999 39.9802 33.0622 40.0825 32.8608C40.2806 32.4547 40.1089 32.141 39.9042 31.8009C38.9863 30.259 38.1246 28.6874 37.1935 27.1521C36.477 25.9667 35.81 24.7517 35.1431 23.5366C34.9615 23.2064 34.7403 23.0843 34.3605 23.0876C31.3361 23.1008 28.315 23.1206 25.2906 23.0777C24.551 23.0678 24.0062 23.1734 23.7685 23.9526C23.7156 24.1243 23.577 24.2663 23.4845 24.4248C22.0648 26.8813 20.6516 29.3411 19.2219 31.7943C19.0139 32.1509 18.8389 32.4712 19.0601 32.8905C19.1625 33.0886 19.1262 33.3297 19.1262 33.5542C19.1262 35.7466 19.1262 37.9356 19.1262 40.128C19.1262 40.6497 19.1262 40.6497 19.6578 40.6497C22.9595 40.6497 26.258 40.6497 29.5598 40.6497H29.5565ZM37.7911 11.987C37.7911 9.06825 37.7911 6.14949 37.7911 3.23072C37.7911 2.32934 37.385 1.91992 36.4869 1.91992C31.8644 1.91992 27.2452 1.91992 22.6228 1.91992C21.7643 1.91992 21.3483 2.34585 21.3483 3.21421C21.3483 9.05174 21.3483 14.886 21.3483 20.7235C21.3483 21.7239 21.7379 22.1069 22.7449 22.1102C27.2749 22.1102 31.8017 22.1102 36.3317 22.1102C37.4048 22.1102 37.7944 21.7239 37.7944 20.6608C37.7944 17.7684 37.7944 14.8761 37.7944 11.9837L37.7911 11.987ZM1.69613 42.3369C1.69613 45.216 1.69613 48.0952 1.69613 50.9743C1.69613 52.1233 2.04282 52.4766 3.17532 52.4766C7.71856 52.4766 12.2585 52.4766 16.8017 52.4766C17.7295 52.4766 18.1389 52.0804 18.1389 51.1592C18.1423 45.2953 18.1389 39.4346 18.1389 33.5707C18.1389 32.7056 17.7097 32.2863 16.8447 32.2863C12.2486 32.2863 7.65583 32.2863 3.05976 32.2863C2.08904 32.2863 1.69613 32.6858 1.69283 33.6631C1.69283 36.5555 1.69283 39.4478 1.69283 42.3402L1.69613 42.3369ZM40.9938 42.3534C40.9938 45.2854 40.9938 48.2173 40.9938 51.1493C40.9938 52.054 41.4032 52.47 42.2914 52.47C46.8875 52.47 51.4835 52.4634 56.0763 52.4733C56.9182 52.4733 57.4531 51.9153 57.4498 51.0932C57.4267 45.2689 57.4366 39.4445 57.4366 33.6235C57.4366 32.6957 57.0107 32.2797 56.073 32.2797C51.5033 32.2797 46.9337 32.2797 42.3673 32.2797C41.39 32.2797 40.9938 32.6693 40.9938 33.64C40.9938 36.5456 40.9938 39.4511 40.9938 42.3567V42.3534Z" fill="white"/>
<path d="M26.1426 14.6152C26.1426 13.1228 26.1559 11.6304 26.1393 10.1413C26.1228 8.55973 27.4072 6.78998 29.5336 6.76356C31.4486 6.74045 32.9872 8.26917 32.9905 10.1545C33.0004 12.6506 32.9509 15.1468 33.0103 17.6396C33.0433 19.0495 32.0297 20.1522 30.359 19.9806C29.1407 19.8551 28.3713 19.0065 28.368 17.7783C28.3647 16.101 28.3581 14.4237 28.368 12.7497C28.3746 11.6931 29.2265 10.795 30.2666 10.7125C30.5472 10.6894 30.8047 10.729 30.9071 11.0427C31.0095 11.3563 30.8213 11.6139 30.4515 11.6799C29.659 11.8219 29.3454 12.1752 29.3454 12.961C29.3421 14.559 29.3421 16.1571 29.3454 17.7519C29.3454 18.3132 29.6491 18.7721 30.0784 18.9141C30.7288 19.1254 31.4948 18.9372 31.8151 18.4948C31.9703 18.2801 32.0099 18.0391 32.0099 17.7816C32.0099 15.2458 32.0165 12.7134 32.0066 10.1776C32 8.81727 30.9104 7.75079 29.5501 7.73428C28.2426 7.71778 27.1299 8.80406 27.1233 10.1611C27.1068 13.1327 27.1167 16.101 27.1167 19.0726C27.1167 19.2178 27.1233 19.3631 27.1035 19.5084C27.0638 19.789 26.8822 19.9244 26.6082 19.9211C26.3275 19.9211 26.1625 19.7659 26.1459 19.482C26.1327 19.2575 26.1393 19.0329 26.1393 18.8084C26.1393 17.4085 26.1393 16.0085 26.1393 14.6086L26.1426 14.6152Z" fill="white"/>
<path d="M23.7621 14.2916C23.7621 12.8124 23.7853 11.3333 23.7555 9.85406C23.7258 8.4475 24.1749 7.17962 25.0531 6.15277C27.3016 3.52456 30.993 3.32976 33.433 5.51223C34.7405 6.68106 35.3877 8.16685 35.3811 9.9366C35.3679 12.961 35.3778 15.9854 35.3778 19.0099C35.3778 19.1419 35.3778 19.274 35.3745 19.4061C35.3613 19.7297 35.216 19.9443 34.866 19.9311C34.5391 19.9179 34.4236 19.6867 34.4004 19.3962C34.3905 19.2641 34.3971 19.132 34.3971 19C34.3971 15.9755 34.3971 12.9511 34.3971 9.9267C34.3971 7.8895 33.2745 6.17919 31.4388 5.39997C29.6195 4.62735 27.5724 5.01696 26.1394 6.45984C25.205 7.39754 24.7428 8.54656 24.7461 9.88708C24.756 12.9379 24.7494 15.9888 24.7461 19.0396C24.7461 19.1981 24.7527 19.3599 24.7263 19.515C24.68 19.7858 24.5017 19.9311 24.2277 19.9278C23.9437 19.9278 23.7919 19.766 23.772 19.4853C23.7621 19.3665 23.7654 19.2476 23.7654 19.1287C23.7654 17.5175 23.7654 15.9062 23.7654 14.2949L23.7621 14.2916Z" fill="white"/>
<path d="M6.49431 44.9816C6.49431 43.5156 6.48771 42.0496 6.49431 40.5836C6.50421 38.9889 7.57069 37.6219 9.0862 37.2455C10.6248 36.8625 12.2295 37.5724 12.9757 38.9922C13.2101 39.4379 13.3455 39.92 13.3455 40.435C13.3455 43.0368 13.3488 45.6386 13.3455 48.2404C13.3455 49.4852 12.4672 50.3404 11.2092 50.3569C9.86211 50.3701 9.06969 49.8385 8.77583 48.7258C8.7131 48.4914 8.7164 48.2536 8.7164 48.0192C8.7164 46.5004 8.72961 44.9816 8.7098 43.4628C8.69989 42.7958 8.84517 42.1751 9.29751 41.7062C9.70033 41.2869 10.255 41.0558 10.8659 41.0987C11.1135 41.1152 11.272 41.2869 11.2819 41.551C11.2951 41.8284 11.1531 41.9935 10.889 42.0694C9.85221 42.3633 9.69703 42.5713 9.69703 43.6378C9.69703 45.0905 9.69703 46.5433 9.69703 47.9961C9.69703 49.1616 10.7041 49.7725 11.7573 49.2409C12.1899 49.0229 12.3649 48.6432 12.3616 48.1678C12.3583 46.5433 12.3616 44.9188 12.3616 43.2944C12.3616 42.3963 12.3682 41.4982 12.3616 40.6001C12.3516 39.5799 11.8861 38.8205 10.9715 38.3846C10.0206 37.9323 9.09941 38.0677 8.30698 38.7412C7.72917 39.2332 7.46833 39.9068 7.47163 40.6794C7.47493 43.5981 7.47163 46.5169 7.47163 49.4357C7.47163 49.5809 7.47163 49.7262 7.45843 49.8715C7.42211 50.1687 7.23721 50.3271 6.94995 50.3205C6.67921 50.3106 6.52072 50.1356 6.49761 49.8583C6.4877 49.7394 6.49101 49.6206 6.49101 49.5017C6.49101 47.9961 6.49101 46.4905 6.49101 44.9849L6.49431 44.9816Z" fill="white"/>
<path d="M15.7288 44.7009C15.7288 46.299 15.7288 47.897 15.7288 49.4951C15.7288 49.6272 15.7354 49.7592 15.7156 49.8913C15.6793 50.1687 15.501 50.3172 15.2335 50.3205C14.976 50.3238 14.8142 50.1653 14.7713 49.9144C14.7449 49.7592 14.7482 49.5974 14.7482 49.4423C14.7482 46.4178 14.7053 43.3934 14.7614 40.369C14.8109 37.7474 12.7143 35.4626 10.0465 35.3965C7.28618 35.3272 5.14333 37.5328 5.11031 40.0454C5.06739 43.1755 5.10041 46.3056 5.09711 49.4357C5.09711 49.6074 5.10371 49.7823 5.06739 49.9474C5.01456 50.1951 4.83957 50.337 4.58203 50.3238C4.3311 50.3073 4.16601 50.1587 4.12969 49.9045C4.11318 49.7757 4.11648 49.6404 4.11648 49.5083C4.11648 46.431 4.11648 43.3538 4.11648 40.2765C4.11978 36.9484 6.7678 34.3268 10.0861 34.4159C11.7898 34.4621 13.2327 35.1555 14.352 36.4564C15.2798 37.5361 15.7354 38.7974 15.7288 40.227C15.7222 41.7194 15.7288 43.2118 15.7288 44.7042V44.7009Z" fill="white"/>
<path d="M46.772 44.9882C46.772 46.4806 46.772 47.973 46.772 49.4654C46.772 49.6371 46.7819 49.8121 46.7159 49.9738C46.6168 50.205 46.4484 50.3337 46.1876 50.2908C45.9466 50.2512 45.8211 50.0993 45.798 49.8583C45.7914 49.7922 45.7914 49.7262 45.7914 49.6602C45.7749 46.8207 45.7584 43.9844 45.7419 41.1449C45.7353 39.9893 45.9367 38.903 46.8479 38.0809C47.9144 37.1134 49.146 36.8493 50.4832 37.3842C51.8402 37.9257 52.5996 38.9922 52.6293 40.435C52.6822 43.0599 52.6492 45.6914 52.6293 48.3164C52.6194 49.4654 51.7082 50.3139 50.5393 50.3502C49.7832 50.3734 49.0998 50.238 48.5583 49.6503C48.2182 49.2805 48.03 48.8545 48.0267 48.3626C48.0168 46.5796 48.0069 44.7967 48.0267 43.0137C48.0399 42.0001 48.9611 41.102 49.9714 41.0657C50.2785 41.0525 50.5327 41.1581 50.5756 41.5015C50.6219 41.8449 50.4304 41.9935 50.0969 42.043C49.3144 42.1619 49.0007 42.5383 48.9974 43.3307C48.9908 44.9023 48.9875 46.474 48.9875 48.0456C48.9875 48.947 49.4167 49.3663 50.3313 49.3663C51.1997 49.3663 51.6718 48.9173 51.6718 48.0621C51.6718 45.566 51.6718 43.0698 51.6586 40.577C51.652 39.2728 50.5756 38.1733 49.3771 38.1304C47.7923 38.0743 46.7291 39.3256 46.7621 40.5902C46.8017 42.0562 46.772 43.5222 46.772 44.9882Z" fill="white"/>
<path d="M44.3915 44.6745C44.3915 46.2065 44.3915 47.7386 44.3915 49.2706C44.3915 49.3762 44.3915 49.4819 44.3915 49.5876C44.3783 50.0993 44.2429 50.3007 43.9061 50.3073C43.5627 50.3139 43.3679 50.0696 43.3679 49.581C43.3646 47.0848 43.3613 44.5887 43.3679 42.0925C43.3679 41.0921 43.3151 40.0851 43.5033 39.0912C44.2066 35.3833 48.3305 33.2999 51.7115 34.9739C53.8741 36.0437 54.9901 37.83 55.0199 40.2369C55.0562 43.3538 55.0298 46.4707 55.0298 49.5843C55.0298 49.6899 55.0298 49.7956 55.0166 49.9012C54.9802 50.1654 54.8019 50.2908 54.5543 50.3073C54.2902 50.3272 54.1251 50.1753 54.0756 49.9276C54.0425 49.7626 54.0491 49.5876 54.0491 49.4159C54.0491 46.3386 54.059 43.2614 54.0458 40.1874C54.0326 37.5229 51.8303 35.3635 49.1691 35.38C46.5673 35.3965 44.4245 37.5196 44.4014 40.1181C44.3882 41.6369 44.4014 43.1557 44.4014 44.6745H44.3915Z" fill="white"/>
</svg>